<svg width="120" height="135" viewBox="0 0 120 135" fill="none" xmlns="http://www.w3.org/2000/svg">
<path d="M120 0H0L10.5882 120.789L60 135L109.412 120.789L120 0Z" fill="#0277BD"/>
<path d="M63 11V124L100.606 112.665L109 11H63Z" fill="#039BE5"/>
<path d="M94 29H63V43.1176H79.6923L78.6703 57.2353H63V71.3529H77.989L76.967 87.2353L63 92.1765V107L89.9121 97.8235L92.2967 57.2353L94 29Z" fill="white"/>
<path d="M63 29V43.1176H33.0109L32 29H63ZM47.5 57.2353L48.1739 71.3529H63V57.2353H47.5ZM48.8478 78.4118H35.3696L36.3804 97.8235L63 107V92.1765L49.1848 87.2353L48.8478 78.4118Z" fill="#EEEEEE"/>
</svg>
