<svg width="121" height="135" viewBox="0 0 121 135" fill="none" xmlns="http://www.w3.org/2000/svg">
<path d="M121 0H0L10.6765 120.789L60.5 135L110.324 120.789L121 0Z" fill="#E65100"/>
<path d="M121 0H0L10.6765 120.789L60.5 135L110.324 120.789L121 0Z" fill="#B84100"/>
<path d="M61 11V124L100.241 112.665L109 11H61Z" fill="#FF6D00"/>
<path d="M61 70.8959V56.5973H90.913L88.4783 97.7059L61 107V91.9864L75.2609 86.9819L76.3043 70.8959H61V70.8959ZM91.9565 42.2986L93 28H61V42.2986H91.9565Z" fill="white"/>
<path d="M61 91.9864V107L32.3517 97.7059L30.9011 78.0453H45.4066L46.1319 86.9819L61 91.9864ZM43.2308 42.2986H61V28H28L30.5385 70.8959H61V56.5973H44.3187L43.2308 42.2986Z" fill="#EEEEEE"/>
</svg>
