<svg width="121" height="136" viewBox="0 0 121 136" fill="none" xmlns="http://www.w3.org/2000/svg">
<path d="M120.091 1.71381C119.536 1.10631 118.756 0.76001 117.935 0.76001H3.77802C2.95702 0.76001 2.17693 1.10631 1.6218 1.71381C1.06668 2.32131 0.794961 3.13718 0.868004 3.95599L11.1524 119.666C11.2605 120.875 12.099 121.893 13.2619 122.228L60.0383 135.648C60.2983 135.722 60.57 135.76 60.8388 135.76C61.1076 135.76 61.3793 135.722 61.6394 135.648L108.457 122.228C109.62 121.893 110.458 120.875 110.566 119.666L120.845 3.95599C120.918 3.13718 120.643 2.32131 120.091 1.71381ZM22.8743 80.0109L43.3262 85.7102V27.1731H55.013V103.477L22.8743 94.5234V80.0109ZM98.9963 59.4557L95.9168 95.4067L66.6998 103.477V89.9745L86.4212 84.5304L87.1517 73.525L66.6998 77.0644V27.1731H101.76L100.752 38.9122H78.3866V62.3904L98.9963 59.4557Z" fill="black"/>
</svg>
